<?xml version="1.0" encoding="utf-8"?>
<!-- Generator: Adobe Illustrator 27.1.1, SVG Export Plug-In . SVG Version: 6.00 Build 0)  -->
<svg version="1.1" id="Layer_1" xmlns="http://www.w3.org/2000/svg" xmlns:xlink="http://www.w3.org/1999/xlink" x="0px" y="0px"
	 viewBox="0 0 2743.7 494.9" style="enable-background:new 0 0 2743.7 494.9;" xml:space="preserve">
<style type="text/css">
	.st0{fill:#007BC2;stroke:#007BC2;stroke-width:0.995;stroke-miterlimit:10;}
	.st1{fill:#007BC2;stroke:#007BC2;stroke-width:1.3572;stroke-miterlimit:10;}
	.st2{fill:#007BC2;stroke:#007BC2;stroke-width:0.9464;stroke-miterlimit:10;}
	.st3{fill:#007BC2;stroke:#007BC2;stroke-width:1.5474;stroke-miterlimit:10;}
	.st4{fill:#007BC2;stroke:#007BC2;stroke-width:1.8304;stroke-miterlimit:10;}
	.st5{fill:#007BC2;stroke:#007BC2;stroke-width:1.8084;stroke-miterlimit:10;}
	.st6{fill:#007BC2;stroke:#007BC2;stroke-width:1.7698;stroke-miterlimit:10;}
	.st7{fill:#007BC2;stroke:#007BC2;stroke-width:1.7145;stroke-miterlimit:10;}
	.st8{fill:#007BC2;stroke:#007BC2;stroke-width:1.4523;stroke-miterlimit:10;}
	.st9{fill:#007BC2;stroke:#007BC2;stroke-width:1.3371;stroke-miterlimit:10;}
	.st10{fill:#007BC2;stroke:#007BC2;stroke-width:1.3551;stroke-miterlimit:10;}
	.st11{fill:#007BC2;stroke:#007BC2;stroke-width:1.4273;stroke-miterlimit:10;}
	.st12{fill:#007BC2;stroke:#007BC2;stroke-width:1.5866;stroke-miterlimit:10;}
	.st13{fill:#007BC2;stroke:#007BC2;stroke-width:1.4071;stroke-miterlimit:10;}
	.st14{fill:#007BC2;stroke:#007BC2;stroke-width:1.1951;stroke-miterlimit:10;}
	.st15{fill:#007BC2;stroke:#007BC2;stroke-width:1.3556;stroke-miterlimit:10;}
	.st16{fill:#007BC2;stroke:#007BC2;stroke-width:1.0752;stroke-miterlimit:10;}
	.st17{fill:#007BC2;stroke:#007BC2;stroke-width:1.0088;stroke-miterlimit:10;}
	.st18{fill:#007BC2;stroke:#007BC2;stroke-width:1.0398;stroke-miterlimit:10;}
	.st19{fill:#007BC2;stroke:#007BC2;stroke-width:0.9557;stroke-miterlimit:10;}
	.st20{fill:#007BC2;stroke:#007BC2;stroke-width:1.1338;stroke-miterlimit:10;}
	.st21{fill:#007BC2;stroke:#007BC2;stroke-width:1.0083;stroke-miterlimit:10;}
	.st22{fill:#007BC2;stroke:#007BC2;stroke-width:1.1772;stroke-miterlimit:10;}
	.st23{fill:#007BC2;stroke:#007BC2;stroke-width:1.3052;stroke-miterlimit:10;}
	.st24{fill:#007BC2;stroke:#007BC2;stroke-width:1.5144;stroke-miterlimit:10;}
	.st25{fill:#007BC2;stroke:#007BC2;stroke-width:1.3695;stroke-miterlimit:10;}
	.st26{fill:#007BC2;stroke:#007BC2;stroke-width:1.5617;stroke-miterlimit:10;}
	.st27{fill:#007BC2;stroke:#007BC2;stroke-width:1.7265;stroke-miterlimit:10;}
	.st28{fill:#007BC2;stroke:#007BC2;stroke-width:1.4915;stroke-miterlimit:10;}
	.st29{fill:#007BC2;stroke:#007BC2;stroke-width:1.6442;stroke-miterlimit:10;}
	.st30{fill:#007BC2;stroke:#007BC2;stroke-width:1.5121;stroke-miterlimit:10;}
	.st31{fill:#007BC2;stroke:#007BC2;stroke-width:1.1214;stroke-miterlimit:10;}
	.st32{fill:#007BC2;stroke:#007BC2;stroke-width:0.7745;stroke-miterlimit:10;}
	.st33{fill:#007BC2;stroke:#007BC2;stroke-width:1.1919;stroke-miterlimit:10;}
	.st34{fill:#007BC2;stroke:#007BC2;stroke-width:1.2479;stroke-miterlimit:10;}
	.st35{fill:#007BC2;stroke:#007BC2;stroke-width:1.3908;stroke-miterlimit:10;}
	.st36{fill:#007BC2;stroke:#007BC2;stroke-width:1.5887;stroke-miterlimit:10;}
	.st37{fill:#007BC2;stroke:#007BC2;stroke-width:1.6818;stroke-miterlimit:10;}
	.st38{fill:#007BC2;stroke:#007BC2;stroke-width:1.734;stroke-miterlimit:10;}
	.st39{fill:#007BC2;stroke:#007BC2;stroke-width:2.0499;stroke-miterlimit:10;}
	.st40{fill:#007BC2;stroke:#007BC2;stroke-width:1.7768;stroke-miterlimit:10;}
	.st41{fill:#007BC2;stroke:#007BC2;stroke-width:1.337;stroke-miterlimit:10;}
	.st42{fill:#007BC2;stroke:#007BC2;stroke-width:1.4799;stroke-miterlimit:10;}
	.st43{fill:#007BC2;stroke:#007BC2;stroke-width:0.9374;stroke-miterlimit:10;}
	.st44{fill:#007BC2;stroke:#007BC2;stroke-width:1.2805;stroke-miterlimit:10;}
	.st45{fill:#007BC2;stroke:#007BC2;stroke-width:0.572;stroke-miterlimit:10;}
	.st46{fill:#007BC2;stroke:#007BC2;stroke-width:1.4993;stroke-miterlimit:10;}
	.st47{fill:#007BC2;stroke:#007BC2;stroke-width:1.1934;stroke-miterlimit:10;}
	.st48{fill:#007BC2;stroke:#007BC2;stroke-width:0.9792;stroke-miterlimit:10;}
	.st49{fill:#007BC2;stroke:#007BC2;stroke-width:0.7838;stroke-miterlimit:10;}
	.st50{fill:#007BC2;stroke:#007BC2;stroke-width:2.1285;stroke-miterlimit:10;}
	.st51{fill:#007BC2;stroke:#007BC2;stroke-width:1.4094;stroke-miterlimit:10;}
</style>
<g>
	<path class="st0" d="M47.4,494.9H0.6v-76.8c0-1.5,1.2-2.8,2.8-2.8h41.4c1.5,0,2.8,1.2,2.8,2.8L47.4,494.9L47.4,494.9z"/>
	<path class="st1" d="M100.3,494.9H53.4V359c0-2.1,1.7-3.8,3.8-3.8h39.3c2.1,0,3.8,1.7,3.8,3.8L100.3,494.9L100.3,494.9z"/>
	<path class="st2" d="M153.2,494.9h-46.9v-63.6c0-1.4,1.2-2.6,2.6-2.6h41.6c1.4,0,2.6,1.2,2.6,2.6V494.9z"/>
	<path class="st3" d="M206,494.9h-46.9V281.6c0-2.4,1.9-4.3,4.3-4.3h38.3c2.4,0,4.3,1.9,4.3,4.3L206,494.9L206,494.9z"/>
	<path class="st4" d="M258.9,494.9H212V157.4c0-2.8,2.3-5.1,5.1-5.1h36.7c2.8,0,5.1,2.3,5.1,5.1V494.9z"/>
	<path class="st5" d="M417.4,494.9h-46.9V168.6c0-2.8,2.2-5,5-5h36.8c2.8,0,5,2.2,5,5L417.4,494.9L417.4,494.9z"/>
	<path class="st6" d="M470.3,494.9h-46.9V188c0-2.7,2.2-4.9,4.9-4.9h37.1c2.7,0,4.9,2.2,4.9,4.9L470.3,494.9L470.3,494.9z"/>
	<path class="st7" d="M523.1,494.9h-46.9V215.1c0-2.6,2.1-4.7,4.7-4.7h37.4c2.6,0,4.7,2.1,4.7,4.7V494.9z"/>
	<path class="st8" d="M576,494.9h-46.9V321.6c0-2.2,1.8-4,4-4h38.8c2.2,0,4,1.8,4,4L576,494.9L576,494.9z"/>
	<path class="st9" d="M628.8,494.9h-46.9V366.6c0-2,1.7-3.7,3.7-3.7h39.5c2,0,3.7,1.7,3.7,3.7V494.9z"/>
	<path class="st10" d="M840.2,494.9h-46.9V359.8c0-2.1,1.7-3.8,3.8-3.8h39.4c2.1,0,3.8,1.7,3.8,3.8V494.9z"/>
	<path class="st11" d="M945.9,494.9h-46.9V331.7c0-2.2,1.8-4,4-4h39c2.2,0,4,1.8,4,4V494.9z"/>
	<path class="st12" d="M998.8,494.9h-46.9V264.3c0-2.4,2-4.4,4.4-4.4h38.1c2.4,0,4.4,2,4.4,4.4L998.8,494.9L998.8,494.9z"/>
	<path class="st13" d="M1051.6,494.9h-46.9V339.7c0-2.1,1.7-3.9,3.9-3.9h39.1c2.1,0,3.9,1.7,3.9,3.9V494.9z"/>
	<path class="st14" d="M1104.5,494.9h-46.9V356.8c0-1.8,1.5-3.3,3.3-3.3h40.3c1.8,0,3.3,1.5,3.3,3.3L1104.5,494.9L1104.5,494.9z"/>
	<path class="st15" d="M1157.3,494.9h-46.9V359.6c0-2.1,1.7-3.8,3.8-3.8h39.4c2.1,0,3.8,1.7,3.8,3.8V494.9z"/>
	<path class="st16" d="M1210.2,494.9h-46.9v-100c0-1.6,1.3-3,3-3h40.9c1.6,0,3,1.3,3,3L1210.2,494.9L1210.2,494.9z"/>
	<path class="st17" d="M1263,494.9h-46.9v-80.7c0-1.5,1.3-2.8,2.8-2.8h41.3c1.5,0,2.8,1.3,2.8,2.8L1263,494.9L1263,494.9z"/>
	<path class="st18" d="M1315.9,494.9H1269v-89.6c0-1.6,1.3-2.9,2.9-2.9h41.1c1.6,0,2.9,1.3,2.9,2.9V494.9z"/>
	<path class="st19" d="M1368.7,494.9h-46.9v-66.1c0-1.5,1.2-2.6,2.6-2.6h41.6c1.5,0,2.6,1.2,2.6,2.6L1368.7,494.9L1368.7,494.9z"/>
	<path class="st20" d="M1421.6,494.9h-46.9V376.8c0-1.7,1.4-3.1,3.1-3.1h40.6c1.7,0,3.1,1.4,3.1,3.1V494.9z"/>
	<path class="st21" d="M1474.4,494.9h-46.9v-80.5c0-1.5,1.3-2.8,2.8-2.8h41.3c1.5,0,2.8,1.3,2.8,2.8L1474.4,494.9L1474.4,494.9z"/>
	<path class="st22" d="M1580.1,494.9h-46.9V362.7c0-1.8,1.5-3.3,3.3-3.3h40.3c1.8,0,3.3,1.5,3.3,3.3V494.9z"/>
	<path class="st23" d="M1633,494.9h-46.9V378.4c0-2,1.6-3.6,3.6-3.6h39.6c2,0,3.6,1.6,3.6,3.6V494.9z"/>
	<path class="st24" d="M1685.8,494.9H1639V295.7c0-2.3,1.9-4.2,4.2-4.2h38.5c2.3,0,4.2,1.9,4.2,4.2L1685.8,494.9L1685.8,494.9z"/>
	<path class="st25" d="M1738.7,494.9h-46.9V354.3c0-2.1,1.7-3.8,3.8-3.8h39.3c2.1,0,3.8,1.7,3.8,3.8L1738.7,494.9L1738.7,494.9z"/>
	<path class="st26" d="M1791.5,494.9h-46.9V275.3c0-2.4,1.9-4.3,4.3-4.3h38.2c2.4,0,4.3,1.9,4.3,4.3L1791.5,494.9L1791.5,494.9z"/>
	<path class="st27" d="M1844.4,494.9h-46.9V209.3c0-2.6,2.1-4.8,4.8-4.8h37.3c2.6,0,4.8,2.1,4.8,4.8L1844.4,494.9L1844.4,494.9z"/>
	<path class="st28" d="M1897.2,494.9h-46.9V305.4c0-2.3,1.8-4.1,4.1-4.1h38.6c2.3,0,4.1,1.8,4.1,4.1L1897.2,494.9L1897.2,494.9z"/>
	<path class="st29" d="M1950.1,494.9h-46.9V248.2c0-2.5,2-4.6,4.6-4.6h37.8c2.5,0,4.6,2,4.6,4.6L1950.1,494.9L1950.1,494.9z"/>
	<path class="st30" d="M2002.9,494.9h-46.9V296.7c0-2.3,1.9-4.2,4.2-4.2h38.5c2.3,0,4.2,1.9,4.2,4.2L2002.9,494.9L2002.9,494.9z"/>
	<path class="st31" d="M2055.8,494.9h-46.9V380.6c0-1.7,1.4-3.1,3.1-3.1h40.7c1.7,0,3.1,1.4,3.1,3.1L2055.8,494.9L2055.8,494.9z"/>
	<path class="st32" d="M2108.6,494.9h-46.9v-42.4c0-1.2,1-2.1,2.1-2.1h42.6c1.2,0,2.1,1,2.1,2.1L2108.6,494.9L2108.6,494.9z"/>
	<path class="st33" d="M2161.5,494.9h-46.9V357.8c0-1.8,1.5-3.3,3.3-3.3h40.3c1.8,0,3.3,1.5,3.3,3.3L2161.5,494.9L2161.5,494.9z"/>
	<path class="st34" d="M2214.3,494.9h-46.9V399c0-1.9,1.5-3.5,3.5-3.5h39.9c1.9,0,3.5,1.5,3.5,3.5L2214.3,494.9L2214.3,494.9z"/>
	<path class="st35" d="M2267.2,494.9h-46.9V346.1c0-2.1,1.7-3.9,3.9-3.9h39.2c2.1,0,3.9,1.7,3.9,3.9L2267.2,494.9L2267.2,494.9z"/>
	<path class="st36" d="M2320,494.9h-46.9V263.3c0-2.4,2-4.4,4.4-4.4h38.1c2.4,0,4.4,2,4.4,4.4L2320,494.9L2320,494.9z"/>
	<path class="st37" d="M2372.9,494.9H2326V230.7c0-2.6,2.1-4.7,4.7-4.7h37.6c2.6,0,4.7,2.1,4.7,4.7L2372.9,494.9L2372.9,494.9z"/>
	<path class="st38" d="M2425.7,494.9h-46.9V205.6c0-2.6,2.1-4.8,4.8-4.8h37.3c2.6,0,4.8,2.1,4.8,4.8L2425.7,494.9L2425.7,494.9z"/>
	<path class="st39" d="M2478.6,494.9h-46.9v-417c0-3.1,2.5-5.7,5.7-5.7h35.5c3.1,0,5.7,2.5,5.7,5.7L2478.6,494.9L2478.6,494.9z"/>
	<path class="st40" d="M2584.3,494.9h-46.9V184.6c0-2.7,2.2-4.9,4.9-4.9h37c2.7,0,4.9,2.2,4.9,4.9L2584.3,494.9L2584.3,494.9z"/>
	<path class="st41" d="M2531.4,494.9h-46.9V366.7c0-2,1.7-3.7,3.7-3.7h39.5c2,0,3.7,1.7,3.7,3.7V494.9z"/>
	<path class="st42" d="M2637.2,494.9h-46.9V310.2c0-2.3,1.8-4.1,4.1-4.1h38.7c2.3,0,4.1,1.8,4.1,4.1L2637.2,494.9L2637.2,494.9z"/>
	<path class="st43" d="M2690,494.9h-46.9v-61.2c0-1.4,1.2-2.6,2.6-2.6h41.7c1.4,0,2.6,1.2,2.6,2.6L2690,494.9L2690,494.9z"/>
	<path class="st44" d="M2742.9,494.9H2696V387.4c0-2,1.6-3.5,3.5-3.5h39.8c2,0,3.5,1.6,3.5,3.5L2742.9,494.9L2742.9,494.9z"/>
	<path class="st45" d="M1527.3,494.9h-46.9v-24.5c0-0.9,0.7-1.6,1.6-1.6h43.7c0.9,0,1.6,0.7,1.6,1.6V494.9z"/>
	<path class="st46" d="M893.1,494.9h-46.9V302.1c0-2.3,1.9-4.2,4.2-4.2h38.6c2.3,0,4.2,1.9,4.2,4.2L893.1,494.9L893.1,494.9z"/>
	<path class="st47" d="M681.7,494.9h-46.9V357.3c0-1.8,1.5-3.3,3.3-3.3h40.3c1.8,0,3.3,1.5,3.3,3.3L681.7,494.9L681.7,494.9z"/>
	<path class="st48" d="M734.5,494.9h-46.9v-72.4c0-1.5,1.2-2.7,2.7-2.7h41.4c1.5,0,2.7,1.2,2.7,2.7V494.9z"/>
	<path class="st49" d="M787.4,494.9h-46.9v-44.4c0-1.2,1-2.2,2.2-2.2h42.5c1.2,0,2.2,1,2.2,2.2L787.4,494.9L787.4,494.9z"/>
	<path class="st50" d="M364.6,494.9h-46.9V31.7c0-3.3,2.6-5.9,5.9-5.9h35.1c3.3,0,5.9,2.6,5.9,5.9L364.6,494.9L364.6,494.9z"/>
	<path class="st51" d="M311.7,494.9h-46.9V338.8c0-2.2,1.7-3.9,3.9-3.9h39.1c2.2,0,3.9,1.7,3.9,3.9V494.9z"/>
</g>
</svg>
