<svg width="170" height="84" viewBox="0 0 170 84" fill="none" xmlns="http://www.w3.org/2000/svg">
<path d="M6.47947 83.4314C5.97918 83.4314 5.50318 83.378 5.04661 83.2663C4.59004 83.1594 4.1869 82.9846 3.83718 82.7563C3.48747 82.5231 3.21061 82.2366 3.01147 81.8917C2.80747 81.5469 2.71033 81.1389 2.71033 80.6629C2.71033 80.6094 2.71033 80.556 2.71518 80.5026C2.71518 80.4491 2.72004 80.4103 2.72004 80.386H4.43947C4.43947 80.386 4.43947 80.4346 4.43461 80.4831C4.43461 80.5317 4.42976 80.5706 4.42976 80.6094C4.42976 80.896 4.51233 81.1437 4.67747 81.3526C4.84261 81.5566 5.08547 81.7169 5.40118 81.8237C5.7169 81.9354 6.08604 81.9889 6.51833 81.9889C6.8049 81.9889 7.06233 81.9694 7.28576 81.9354C7.50918 81.9014 7.70347 81.848 7.86376 81.7849C8.02404 81.7217 8.16004 81.6391 8.26204 81.5469C8.3689 81.4546 8.44176 81.3526 8.49033 81.2408C8.5389 81.1291 8.56318 81.0029 8.56318 80.8717C8.56318 80.6191 8.48547 80.4103 8.32518 80.2403C8.16976 80.0751 7.95604 79.9343 7.6889 79.8226C7.42176 79.7109 7.12061 79.604 6.78547 79.5117C6.45033 79.4194 6.10061 79.3271 5.7509 79.23C5.39633 79.1329 5.05147 79.0163 4.71633 78.8803C4.38118 78.7443 4.07518 78.5791 3.8129 78.3897C3.54576 78.1954 3.33204 77.9526 3.17661 77.6611C3.02118 77.3697 2.93861 77.0151 2.93861 76.6023C2.93861 76.1894 3.02604 75.8154 3.20576 75.4997C3.38547 75.184 3.63804 74.9266 3.96833 74.7177C4.29861 74.5137 4.67747 74.3583 5.11461 74.2563C5.55176 74.1543 6.02776 74.1057 6.54747 74.1057C7.02833 74.1057 7.48004 74.1543 7.90747 74.2563C8.3349 74.3583 8.70404 74.5137 9.02947 74.7274C9.3549 74.9411 9.60747 75.2131 9.79204 75.5434C9.97661 75.8689 10.0689 76.2623 10.0689 76.7189V76.8743H8.37376V76.7431C8.37376 76.4906 8.29604 76.2768 8.14547 76.102C7.9949 75.9271 7.77633 75.7911 7.50433 75.694C7.23233 75.5969 6.9069 75.5483 6.53776 75.5483C6.14433 75.5483 5.80918 75.5871 5.52747 75.66C5.24576 75.7329 5.03204 75.8446 4.88633 75.9903C4.73576 76.136 4.6629 76.3108 4.6629 76.5197C4.6629 76.7286 4.74061 76.9229 4.9009 77.0686C5.05633 77.2191 5.27004 77.3454 5.53718 77.4474C5.80433 77.5543 6.10547 77.6466 6.44061 77.734C6.77576 77.8214 7.12547 77.9137 7.47518 78.0157C7.8249 78.1177 8.17461 78.2343 8.50976 78.3654C8.8449 78.4966 9.14604 78.6617 9.41318 78.856C9.68033 79.0551 9.89404 79.298 10.0495 79.5846C10.2049 79.8711 10.2875 80.2209 10.2875 80.6191C10.2875 81.2943 10.1223 81.8334 9.7969 82.2463C9.46661 82.6591 9.01976 82.9554 8.44661 83.14C7.87347 83.3246 7.21776 83.4169 6.48433 83.4169L6.47947 83.4314Z" fill="#0D0C1D"/>
<path d="M31.9308 83.2759V75.7425H29.0554V74.2708H36.5257V75.7425H33.6406V83.2759H31.9357H31.9308Z" fill="#0D0C1D"/>
<path d="M59.4369 83.4314C58.65 83.4314 57.97 83.3051 57.4017 83.0525C56.8334 82.7999 56.3963 82.4114 56.0951 81.8916C55.794 81.3719 55.6434 80.7211 55.6434 79.9439V74.2756H57.3483V79.8954C57.3483 80.5851 57.528 81.1096 57.8923 81.4642C58.2566 81.8188 58.7714 81.9936 59.432 81.9936C60.0926 81.9936 60.6171 81.8188 60.9863 81.4642C61.3603 81.1096 61.5449 80.5851 61.5449 79.8954V74.2756H63.2497V79.9439C63.2497 80.7211 63.0943 81.3719 62.7883 81.8916C62.4823 82.4114 62.0451 82.7999 61.4769 83.0525C60.9086 83.3051 60.2237 83.4314 59.4271 83.4314H59.4369Z" fill="#0D0C1D"/>
<path d="M83.0524 83.2759V74.2708H86.6612C87.5695 74.2708 88.3515 74.431 88.9975 74.7565C89.6435 75.0819 90.1438 75.5725 90.4935 76.233C90.8432 76.8936 91.0181 77.7387 91.0181 78.7733C91.0181 79.8079 90.8432 80.6433 90.4935 81.3039C90.1438 81.9693 89.6435 82.4648 88.9975 82.7853C88.3515 83.1108 87.5695 83.271 86.6612 83.271H83.0524V83.2759ZM84.7572 81.8187H86.6612C87.0838 81.8187 87.4529 81.7556 87.7784 81.6342C88.1038 81.5128 88.3758 81.3282 88.5944 81.0902C88.8129 80.8522 88.9781 80.5462 89.0946 80.1867C89.2064 79.8225 89.2647 79.3999 89.2647 78.919V78.6422C89.2647 78.1516 89.2064 77.7242 89.0946 77.3647C88.9829 77.0005 88.8129 76.6993 88.5944 76.4613C88.3758 76.2185 88.1038 76.0388 87.7784 75.9173C87.4529 75.7959 87.0838 75.7327 86.6612 75.7327H84.7572V81.8236V81.8187Z" fill="#0D0C1D"/>
<path d="M110.456 83.2759V74.2708H112.161V83.2759H110.456Z" fill="#0D0C1D"/>
<path d="M136.141 83.4315C135.203 83.4315 134.397 83.2614 133.712 82.9263C133.027 82.5912 132.508 82.0763 132.143 81.3817C131.779 80.692 131.599 79.8226 131.599 78.7686C131.599 77.7146 131.779 76.8355 132.143 76.1506C132.508 75.4657 133.027 74.9509 133.712 74.6157C134.397 74.2806 135.203 74.1106 136.141 74.1106C137.078 74.1106 137.899 74.2806 138.574 74.6157C139.249 74.9509 139.774 75.4657 140.138 76.1506C140.503 76.8355 140.682 77.7097 140.682 78.7686C140.682 79.8275 140.503 80.6872 140.138 81.3817C139.774 82.0715 139.254 82.5863 138.574 82.9263C137.894 83.2663 137.083 83.4315 136.141 83.4315ZM136.141 81.9889C136.597 81.9889 136.996 81.9257 137.341 81.7897C137.685 81.6537 137.977 81.4643 138.215 81.2069C138.453 80.9495 138.633 80.6289 138.754 80.25C138.875 79.8712 138.939 79.4292 138.939 78.9289V78.6423C138.939 78.1372 138.875 77.6903 138.754 77.3017C138.633 76.918 138.453 76.5926 138.215 76.3352C137.977 76.0777 137.69 75.8835 137.341 75.7523C136.996 75.6212 136.593 75.5532 136.141 75.5532C135.689 75.5532 135.286 75.6163 134.941 75.7523C134.596 75.8835 134.305 76.0777 134.067 76.3352C133.829 76.5926 133.654 76.9132 133.537 77.3017C133.421 77.6903 133.358 78.1323 133.358 78.6423V78.9289C133.358 79.4292 133.416 79.8663 133.537 80.25C133.654 80.6289 133.834 80.9495 134.067 81.2069C134.3 81.4643 134.591 81.6586 134.941 81.7897C135.291 81.9209 135.689 81.9889 136.141 81.9889Z" fill="#0D0C1D"/>
<path d="M163.482 83.4314C162.981 83.4314 162.506 83.378 162.049 83.2663C161.592 83.1594 161.189 82.9846 160.84 82.7563C160.49 82.5231 160.213 82.2366 160.014 81.8917C159.81 81.5469 159.713 81.1389 159.713 80.6629C159.713 80.6094 159.713 80.556 159.717 80.5026C159.717 80.4491 159.722 80.4103 159.722 80.386H161.442C161.442 80.386 161.442 80.4346 161.437 80.4831C161.437 80.5317 161.432 80.5706 161.432 80.6094C161.432 80.896 161.515 81.1437 161.68 81.3526C161.845 81.5566 162.088 81.7169 162.403 81.8237C162.719 81.9354 163.088 81.9889 163.521 81.9889C163.807 81.9889 164.065 81.9694 164.288 81.9354C164.511 81.9014 164.706 81.848 164.866 81.7849C165.026 81.7217 165.162 81.6391 165.264 81.5469C165.371 81.4546 165.444 81.3526 165.493 81.2408C165.541 81.1291 165.565 81.0029 165.565 80.8717C165.565 80.6191 165.488 80.4103 165.328 80.2403C165.172 80.0751 164.958 79.9343 164.691 79.8226C164.424 79.7109 164.123 79.604 163.788 79.5117C163.453 79.4194 163.103 79.3271 162.753 79.23C162.399 79.1329 162.054 79.0163 161.719 78.8803C161.384 78.7443 161.077 78.5791 160.815 78.3897C160.548 78.1954 160.334 77.9526 160.179 77.6611C160.023 77.3697 159.941 77.0151 159.941 76.6023C159.941 76.1894 160.028 75.8154 160.208 75.4997C160.388 75.184 160.64 74.9266 160.971 74.7177C161.301 74.5137 161.68 74.3583 162.117 74.2563C162.554 74.1543 163.03 74.1057 163.55 74.1057C164.031 74.1057 164.482 74.1543 164.91 74.2563C165.337 74.3583 165.706 74.5137 166.032 74.7274C166.357 74.9411 166.61 75.2131 166.794 75.5434C166.979 75.8689 167.071 76.2623 167.071 76.7189V76.8743H165.376V76.7431C165.376 76.4906 165.298 76.2768 165.148 76.102C164.997 75.9271 164.779 75.7911 164.507 75.694C164.235 75.5969 163.909 75.5483 163.54 75.5483C163.147 75.5483 162.811 75.5871 162.53 75.66C162.248 75.7329 162.034 75.8446 161.889 75.9903C161.738 76.136 161.665 76.3108 161.665 76.5197C161.665 76.7286 161.743 76.9229 161.903 77.0686C162.059 77.2191 162.272 77.3454 162.54 77.4474C162.807 77.5543 163.108 77.6466 163.443 77.734C163.778 77.8214 164.128 77.9137 164.478 78.0157C164.827 78.1177 165.177 78.2343 165.512 78.3654C165.847 78.4966 166.148 78.6617 166.415 78.856C166.683 79.0551 166.896 79.298 167.052 79.5846C167.207 79.8711 167.29 80.2209 167.29 80.6191C167.29 81.2943 167.125 81.8334 166.799 82.2463C166.469 82.6591 166.022 82.9554 165.449 83.14C164.876 83.3246 164.22 83.4169 163.487 83.4169L163.482 83.4314Z" fill="#0D0C1D"/>
<path d="M0 62.8904L0.903428 62.259C3.79343 59.5487 4.42486 56.3916 4.42486 35.6176C4.42486 13.0367 3.79343 9.96701 0.811143 7.1693L0 6.53787V6.26587H26.3743V6.53787L25.3786 7.07701C22.3089 9.69987 21.6774 13.5807 21.6774 31.1004C24.9269 31.1927 27.8169 31.2802 30.5271 31.2802C32.8731 31.2802 36.1274 31.1927 39.5566 31.1004C39.4643 12.585 39.0126 9.33558 35.8554 7.07701L34.8597 6.53787V6.26587H61.234V6.53787L60.3306 7.1693C57.4406 9.87958 56.8091 13.8527 56.8091 32.7276C56.8091 55.5804 57.4406 59.4613 60.4229 62.2639L61.234 62.8953V63.1673H34.8597V62.8953L35.9429 62.2639C39.0126 59.6459 39.5566 56.3964 39.5566 35.6224V34.1799C36.1226 34.0002 32.7809 33.9079 29.7111 33.9079C27.6323 33.9079 24.922 34.0002 21.6726 34.1799C21.6726 55.765 22.304 59.7382 25.466 62.3562L26.3694 62.9002V63.1722H0V62.9002V62.8904Z" fill="#0D0C1D"/>
<path d="M153.797 0.908422C158.848 -1.05872 162.224 0.140993 164.06 4.85728C166.061 9.99128 163.156 14.2267 156.847 16.6844C151.713 18.6856 148.269 17.3159 146.467 12.687C144.563 7.80557 146.982 3.56528 153.797 0.908422Z" fill="#FFB703"/>
<path d="M104.001 43.2045C102.437 46.3374 100.3 48.7708 97.5897 50.5194C94.8794 52.2679 92.0186 53.1374 89.012 53.1374C86.3017 53.1374 83.7906 52.3991 81.4689 50.9225C79.152 49.4508 77.2383 47.2651 75.7326 44.3751L100.208 31.1005C99.722 27.9094 98.5223 25.2914 96.594 23.2416C94.6657 21.1968 92.4412 19.7348 89.9106 18.8605C87.38 17.9911 84.8543 17.5491 82.3237 17.5491C77.6269 17.5491 73.2797 18.4962 69.2726 20.3905C65.2654 22.2896 62.0792 24.9659 59.6992 28.4291C57.3192 31.8922 56.1292 35.8799 56.1292 40.3971C56.1292 45.2154 57.2269 49.3682 59.4272 52.8605C61.6226 56.3528 64.5903 58.9999 68.3206 60.8068C72.0509 62.6136 76.2086 63.5171 80.784 63.5171C85.9617 63.5171 90.3234 62.3708 93.8789 60.0831C97.4294 57.7954 100.067 55.1045 101.781 52.0008C103.496 48.8971 104.327 46.1722 104.263 43.8262L103.991 43.1948L104.001 43.2045ZM75.7277 26.4474C79.7834 24.7716 82.1392 31.3482 83.2223 36.3365L74.0617 41.3005C71.6769 36.2491 71.5554 28.1716 75.7326 26.4474H75.7277Z" fill="#0D0C1D"/>
<path d="M39.848 30.8772H21.3909V34.3792H39.848V30.8772Z" fill="#0D0C1D"/>
<path d="M100.509 62.8905L101.32 62.1667C103.219 59.6362 103.758 56.0225 103.758 36.0645C103.758 27.5305 103.749 22.4256 103.627 19.2733C103.404 13.4836 99.8774 10.8122 99.8774 10.8122V10.5402C107.192 9.54446 116.314 6.20274 120.651 1.32617L121.103 1.4136C120.02 8.36903 119.661 13.6585 119.661 30.1825C119.661 55.0219 120.02 59.6265 122.823 62.2445L123.546 62.8759V63.1479H100.514V62.8759L100.509 62.8905Z" fill="#0D0C1D"/>
<path d="M123.838 62.8905L124.649 62.1667C126.548 59.6362 127.087 56.0225 127.087 36.0645C127.087 27.5305 127.077 22.4256 126.956 19.2733C126.733 13.4836 123.206 10.8122 123.206 10.8122V10.5402C130.521 9.54446 139.643 6.20274 143.98 1.32617L144.432 1.4136C143.349 8.36903 142.989 13.6585 142.989 30.1825C142.989 55.0219 143.349 59.6265 146.151 62.2445L146.875 62.8759V63.1479H123.843V62.8759L123.838 62.8905Z" fill="#0D0C1D"/>
<path d="M146.967 62.8904L147.779 62.1667C149.44 59.9518 150.061 56.9113 150.188 42.811C150.207 40.7953 150.202 35.6758 150.081 32.5236C149.857 26.7338 146.331 24.0624 146.331 24.0624V23.7904C153.646 22.7947 162.768 19.453 167.105 14.5764L167.557 14.6638C166.474 21.6193 166.114 25.6361 166.114 30.1824C166.114 55.0218 166.474 59.6264 169.276 62.2444L170 62.8758V63.1478H146.967V62.8758V62.8904Z" fill="#0D0C1D"/>
<path d="M83.2174 36.3366C82.5082 33.0726 81.2551 29.1334 79.3365 27.2634C78.8702 27.2683 78.3942 27.38 77.894 27.6374C74.4891 29.3957 74.4405 35.1757 76.4708 39.9891L83.2174 36.3317V36.3366Z" fill="#FFB703"/>
</svg>
